<svg width="153" height="45" fill="none" xmlns="http://www.w3.org/2000/svg"><path fill-rule="evenodd" clip-rule="evenodd" d="M26.996 34.082H19.91v-1.754c-1.418 1.62-3.78 2.43-7.087 2.43-3.69 0-6.749-1.306-9.179-3.915C1.214 28.233 0 25.039 0 21.259c0-3.757 1.237-6.94 3.712-9.55 2.475-2.632 5.512-3.948 9.111-3.948 3.262 0 5.624.821 7.087 2.464V0h7.086v34.082ZM19.91 21.26c0-1.777-.63-3.284-1.89-4.522-1.238-1.26-2.745-1.89-4.522-1.89-1.777 0-3.296.63-4.556 1.89-1.237 1.238-1.856 2.745-1.856 4.522 0 1.777.62 3.296 1.856 4.556 1.26 1.237 2.779 1.856 4.556 1.856 1.777 0 3.284-.619 4.522-1.856 1.26-1.26 1.89-2.779 1.89-4.556ZM36.288 7.086h-7.086V0h7.086v7.086Zm0 28.515c0 2.385-.843 4.41-2.53 6.074-1.665 1.687-3.69 2.53-6.075 2.53h-1.855V37.12h1.855c1.013 0 1.519-.506 1.519-1.518V8.436h7.086v27.165Zm53.824-4.758c2.43-2.61 3.645-5.804 3.645-9.584 0-3.757-1.238-6.94-3.712-9.55-2.475-2.632-5.512-3.948-9.111-3.948-3.262 0-5.624.821-7.087 2.464V0h-7.086v34.082h7.086v-1.754c1.418 1.62 3.78 2.43 7.087 2.43 3.69 0 6.749-1.306 9.178-3.915Zm-5.331-14.106c1.26 1.238 1.89 2.745 1.89 4.522 0 1.777-.63 3.296-1.89 4.556-1.238 1.237-2.745 1.856-4.522 1.856-1.778 0-3.296-.619-4.556-1.856-1.237-1.26-1.856-2.779-1.856-4.556 0-1.777.619-3.284 1.856-4.522 1.26-1.26 2.778-1.89 4.556-1.89 1.777 0 3.284.63 4.522 1.89Zm25.703-9.65h-5.231c-.9 0-1.406.45-1.518 1.35h3.374v7.086h-3.374v18.56h-7.087v-18.56h-3.374V8.436h3.374c.045-2.34.9-4.33 2.565-5.973C100.9.821 102.913 0 105.253 0h5.231v7.086Zm1.204 26.995h7.086V0h-7.086v34.082Zm16.421-26.996h-7.086V0h7.086v7.086Zm0 26.996h-7.086V8.436h7.086v25.646Zm16.624 0H153l-7.93-12.857L153 8.437h-8.301l-3.78 6.108-3.745-6.108h-8.302l7.93 12.823-7.93 12.823h8.268l3.779-6.175 3.814 6.175Zm-80.67-16.798a.418.418 0 0 0 .395-.569c-2.03-5.107-7.018-8.717-12.849-8.717-7.633 0-13.822 6.188-13.822 13.821 0 4.943 2.595 9.28 6.496 11.723a.414.414 0 0 0 .631-.361v-4.235c0-.238.194-.432.432-.432h5.831a.432.432 0 0 0 .432-.431V23.33c0-.238.194-.432.432-.432h5.831a.432.432 0 0 0 .432-.432v-4.75c0-.24.194-.433.432-.433h5.327Z" fill="url(#Union__a)"/><defs><linearGradient id="Union__a" x1="14.686" y1="32.827" x2="148.585" y2="8.423" gradientUnits="userSpaceOnUse"><stop stop-color="#501FCB"/><stop offset=".806" stop-color="#FB5373"/><stop offset="1" stop-color="#F52698"/></linearGradient></defs></svg>